<?xml version="1.0" encoding="UTF-8" standalone="no"?>
<!-- Created with Inkscape (http://www.inkscape.org/) -->

<svg
   xmlns:dc="http://purl.org/dc/elements/1.1/"
   xmlns:cc="http://creativecommons.org/ns#"
   xmlns:rdf="http://www.w3.org/1999/02/22-rdf-syntax-ns#"
   xmlns:svg="http://www.w3.org/2000/svg"
   xmlns="http://www.w3.org/2000/svg"
   xmlns:sodipodi="http://sodipodi.sourceforge.net/DTD/sodipodi-0.dtd"
   xmlns:inkscape="http://www.inkscape.org/namespaces/inkscape"
   width="210mm"
   height="297mm"
   viewBox="0 0 210 297"
   version="1.1"
   id="svg8"
   inkscape:version="0.92.4 (5da689c313, 2019-01-14)"
   sodipodi:docname="logo.svg">
  <defs
     id="defs2">
    <pattern
       inkscape:isstock="true"
       inkscape:stockid="Polka dots, medium"
       id="Polkadots-med"
       patternTransform="translate(0,0) scale(10,10)"
       height="10"
       width="10"
       patternUnits="userSpaceOnUse"
       inkscape:collect="always">
      <circle
         id="circle1829"
         r="0.15"
         cy="0.810"
         cx="2.567"
         style="fill:black;stroke:none" />
      <circle
         id="circle1831"
         r="0.15"
         cy="2.33"
         cx="3.048"
         style="fill:black;stroke:none" />
      <circle
         id="circle1833"
         r="0.15"
         cy="2.415"
         cx="4.418"
         style="fill:black;stroke:none" />
      <circle
         id="circle1835"
         r="0.15"
         cy="3.029"
         cx="1.844"
         style="fill:black;stroke:none" />
      <circle
         id="circle1837"
         r="0.15"
         cy="1.363"
         cx="6.08"
         style="fill:black;stroke:none" />
      <circle
         id="circle1839"
         r="0.15"
         cy="4.413"
         cx="5.819"
         style="fill:black;stroke:none" />
      <circle
         id="circle1841"
         r="0.15"
         cy="4.048"
         cx="4.305"
         style="fill:black;stroke:none" />
      <circle
         id="circle1843"
         r="0.15"
         cy="3.045"
         cx="5.541"
         style="fill:black;stroke:none" />
      <circle
         id="circle1845"
         r="0.15"
         cy="5.527"
         cx="4.785"
         style="fill:black;stroke:none" />
      <circle
         id="circle1847"
         r="0.15"
         cy="5.184"
         cx="2.667"
         style="fill:black;stroke:none" />
      <circle
         id="circle1849"
         r="0.15"
         cy="1.448"
         cx="7.965"
         style="fill:black;stroke:none" />
      <circle
         id="circle1851"
         r="0.15"
         cy="5.049"
         cx="7.047"
         style="fill:black;stroke:none" />
      <circle
         id="circle1853"
         r="0.15"
         cy="0.895"
         cx="4.340"
         style="fill:black;stroke:none" />
      <circle
         id="circle1855"
         r="0.15"
         cy="0.340"
         cx="7.125"
         style="fill:black;stroke:none" />
      <circle
         id="circle1857"
         r="0.15"
         cy="1.049"
         cx="9.553"
         style="fill:black;stroke:none" />
      <circle
         id="circle1859"
         r="0.15"
         cy="2.689"
         cx="7.006"
         style="fill:black;stroke:none" />
      <circle
         id="circle1861"
         r="0.15"
         cy="2.689"
         cx="8.909"
         style="fill:black;stroke:none" />
      <circle
         id="circle1863"
         r="0.15"
         cy="4.407"
         cx="9.315"
         style="fill:black;stroke:none" />
      <circle
         id="circle1865"
         r="0.15"
         cy="3.870"
         cx="7.820"
         style="fill:black;stroke:none" />
      <circle
         id="circle1867"
         r="0.15"
         cy="5.948"
         cx="8.270"
         style="fill:black;stroke:none" />
      <circle
         id="circle1869"
         r="0.15"
         cy="7.428"
         cx="7.973"
         style="fill:black;stroke:none" />
      <circle
         id="circle1871"
         r="0.15"
         cy="8.072"
         cx="9.342"
         style="fill:black;stroke:none" />
      <circle
         id="circle1873"
         r="0.15"
         cy="9.315"
         cx="8.206"
         style="fill:black;stroke:none" />
      <circle
         id="circle1875"
         r="0.15"
         cy="9.475"
         cx="9.682"
         style="fill:black;stroke:none" />
      <circle
         id="circle1877"
         r="0.15"
         cy="6.186"
         cx="9.688"
         style="fill:black;stroke:none" />
      <circle
         id="circle1879"
         r="0.15"
         cy="6.296"
         cx="3.379"
         style="fill:black;stroke:none" />
      <circle
         id="circle1881"
         r="0.15"
         cy="8.204"
         cx="2.871"
         style="fill:black;stroke:none" />
      <circle
         id="circle1883"
         r="0.15"
         cy="8.719"
         cx="4.59"
         style="fill:black;stroke:none" />
      <circle
         id="circle1885"
         r="0.15"
         cy="9.671"
         cx="3.181"
         style="fill:black;stroke:none" />
      <circle
         id="circle1887"
         r="0.15"
         cy="7.315"
         cx="5.734"
         style="fill:black;stroke:none" />
      <circle
         id="circle1889"
         r="0.15"
         cy="6.513"
         cx="6.707"
         style="fill:black;stroke:none" />
      <circle
         id="circle1891"
         r="0.15"
         cy="9.670"
         cx="5.730"
         style="fill:black;stroke:none" />
      <circle
         id="circle1893"
         r="0.15"
         cy="8.373"
         cx="6.535"
         style="fill:black;stroke:none" />
      <circle
         id="circle1895"
         r="0.15"
         cy="7.154"
         cx="4.37"
         style="fill:black;stroke:none" />
      <circle
         id="circle1897"
         r="0.15"
         cy="7.25"
         cx="0.622"
         style="fill:black;stroke:none" />
      <circle
         id="circle1899"
         r="0.15"
         cy="5.679"
         cx="0.831"
         style="fill:black;stroke:none" />
      <circle
         id="circle1901"
         r="0.15"
         cy="8.519"
         cx="1.257"
         style="fill:black;stroke:none" />
      <circle
         id="circle1903"
         r="0.15"
         cy="6.877"
         cx="1.989"
         style="fill:black;stroke:none" />
      <circle
         id="circle1905"
         r="0.15"
         cy="3.181"
         cx="0.374"
         style="fill:black;stroke:none" />
      <circle
         id="circle1907"
         r="0.15"
         cy="1.664"
         cx="1.166"
         style="fill:black;stroke:none" />
      <circle
         id="circle1909"
         r="0.15"
         cy="0.093"
         cx="1.151"
         style="fill:black;stroke:none" />
      <circle
         id="circle1911"
         r="0.15"
         cy="10.093"
         cx="1.151"
         style="fill:black;stroke:none" />
      <circle
         id="circle1913"
         r="0.15"
         cy="4.451"
         cx="1.302"
         style="fill:black;stroke:none" />
      <circle
         id="circle1915"
         r="0.15"
         cy="3.763"
         cx="3.047"
         style="fill:black;stroke:none" />
    </pattern>
  </defs>
  <sodipodi:namedview
     id="base"
     pagecolor="#ffffff"
     bordercolor="#666666"
     borderopacity="1.0"
     inkscape:pageopacity="0.0"
     inkscape:pageshadow="2"
     inkscape:zoom="0.24748737"
     inkscape:cx="-1344.4424"
     inkscape:cy="99.354383"
     inkscape:document-units="mm"
     inkscape:current-layer="layer1"
     showgrid="false"
     inkscape:window-width="1918"
     inkscape:window-height="1018"
     inkscape:window-x="0"
     inkscape:window-y="32"
     inkscape:window-maximized="1" />
  <metadata
     id="metadata5">
    <rdf:RDF>
      <cc:Work
         rdf:about="">
        <dc:format>image/svg+xml</dc:format>
        <dc:type
           rdf:resource="http://purl.org/dc/dcmitype/StillImage" />
        <dc:title></dc:title>
      </cc:Work>
    </rdf:RDF>
  </metadata>
  <g
     inkscape:label="Layer 1"
     inkscape:groupmode="layer"
     id="layer1">
    <path
       style="fill:#ff8900;fill-rule:evenodd;stroke:none;stroke-width:0.26458332px;stroke-linecap:butt;stroke-linejoin:miter;stroke-opacity:1;fill-opacity:1"
       d="M 29.934188,48.439339 42.228584,77.037178 12.027129,72.493597 37.952272,87.193421 6.6817382,137.17282 35.546847,124.07661 l -22.71791,40.09043 24.588797,-12.2944 -16.570711,37.15047 59.066564,-7.75082 20.312483,13.63075 42.76313,-4.00905 52.11755,5.07813 -31.00326,-28.59784 36.08138,-28.86511 -28.33057,-24.32153 27.79603,-37.417731 -26.72695,11.225318 29.39965,-44.36674 -30.736,4.810852 6.94901,-8.552624 -30.20145,9.621702 -43.8322,-10.156242 12.02712,13.363476 -26.192411,-9.621702 -20.847023,16.570708 z"
       id="path2674"
       inkscape:connector-curvature="0"
       inkscape:export-xdpi="83.034126"
       inkscape:export-ydpi="83.034126" />
    <path
       inkscape:connector-curvature="0"
       id="path2703"
       d="M 32.605334,54.171678 44.706838,80.94946 14.979228,76.695046 40.497619,90.459327 9.7177042,137.25788 38.129934,124.99516 15.768457,162.5341 l 24.203011,-11.51194 -16.310725,34.78609 58.139839,-7.25753 19.993788,12.76324 42.0922,-3.7539 51.29986,4.75494 -30.51683,-26.77778 35.51527,-27.02805 -27.88607,-22.77362 27.35992,-35.036349 -26.30762,10.510904 28.93838,-41.543102 -30.25376,4.504675 6.83998,-8.008309 -29.7276,9.009347 -43.1445,-9.509867 11.83843,12.512982 -25.781476,-9.009347 -20.519943,15.516097 z"
       style="fill:#ffd1a0;fill-opacity:1;fill-rule:evenodd;stroke:none;stroke-width:0.25400907px;stroke-linecap:butt;stroke-linejoin:miter;stroke-opacity:1"
       inkscape:export-xdpi="83.034126"
       inkscape:export-ydpi="83.034126" />
    <path
       style="fill:url(#Polkadots-med);fill-opacity:1.0;fill-rule:evenodd;stroke:none;stroke-width:0.26458332px;stroke-linecap:butt;stroke-linejoin:miter;stroke-opacity:1"
       d="m 67.61919,102.42777 23.786994,82.5863 12.294396,-0.80181 12.02712,-28.59785 15.76891,28.86512 h 14.16528 L 184.1487,59.931919 167.57799,69.553623 136.04019,163.89977 114.39136,135.03465 97.820644,166.57247 78.309972,101.89324 Z"
       id="path2275-3"
       inkscape:connector-curvature="0"
       inkscape:export-xdpi="83.034126"
       inkscape:export-ydpi="83.034126" />
    <path
       style="fill:#6868f1;fill-rule:evenodd;stroke:#000000;stroke-width:0.26458332px;stroke-linecap:butt;stroke-linejoin:miter;stroke-opacity:1;fill-opacity:1"
       d="m 62.273798,91.737002 23.786989,82.586288 12.294399,-0.80181 12.027124,-28.59784 15.76891,28.86511 H 140.3165 L 178.80331,49.241148 162.2326,58.862851 130.6948,153.20899 109.04597,124.34388 92.475255,155.88169 72.964579,91.202464 Z"
       id="path2275"
       inkscape:connector-curvature="0"
       inkscape:export-xdpi="83.034126"
       inkscape:export-ydpi="83.034126" />
    <path
       style="fill:url(#Polkadots-med);fill-opacity:1.0;fill-rule:evenodd;stroke:none;stroke-width:0.26458332px;stroke-linecap:butt;stroke-linejoin:miter;stroke-opacity:1"
       d="m 53.186757,86.261885 -12.828937,92.475255 63.07561,-0.80181 1.87088,-13.63075 -49.444859,2.40543 5.34539,-32.60689 30.735997,-1.87088 2.40542,-12.02713 -30.468721,0.80181 3.474503,-24.856065 48.37579,-1.60362 1.60361,-12.2944 z"
       id="path817-6"
       inkscape:connector-curvature="0"
       inkscape:export-xdpi="83.034126"
       inkscape:export-ydpi="83.034126" />
    <path
       style="fill:#2a683d;fill-rule:evenodd;stroke:#000000;stroke-width:0.26458332px;stroke-linecap:butt;stroke-linejoin:miter;stroke-opacity:1;fill-opacity:1"
       d="m 48.108515,81.84803 -12.828937,92.47526 63.075608,-0.80181 1.870884,-13.63075 -49.444861,2.40543 5.34539,-32.60689 30.735997,-1.87088 2.405425,-12.02713 -30.468726,0.80181 3.474503,-24.856068 48.375782,-1.603619 1.60362,-12.294396 z"
       id="path817"
       inkscape:connector-curvature="0"
       inkscape:export-xdpi="83.034126"
       inkscape:export-ydpi="83.034126" />
  </g>
</svg>
